<mxfile host="app.diagrams.net" modified="2022-08-25T02:26:04.856Z" agent="5.0 (Windows NT 10.0; Win64; x64) AppleWebKit/537.36 (KHTML, like Gecko) Chrome/104.0.0.0 Safari/537.36" etag="h1Po8wzmIM1Oyh0IHnhA" version="20.2.7" type="github">
  <diagram id="LEm4nLIpw5zEL37WH-7T" name="第 1 页">
    <mxGraphModel dx="1422" dy="730" grid="1" gridSize="10" guides="1" tooltips="1" connect="1" arrows="1" fold="1" page="1" pageScale="1" pageWidth="827" pageHeight="1169" math="0" shadow="0">
      <root>
        <mxCell id="0" />
        <mxCell id="1" parent="0" />
        <mxCell id="Wt1t-0Yeev_Bzz4dzMjs-9" value="" style="rounded=0;whiteSpace=wrap;html=1;" vertex="1" parent="1">
          <mxGeometry x="110" y="367" width="380" height="63" as="geometry" />
        </mxCell>
        <mxCell id="mawcjA4YxSA_-x8KglYQ-3" value="" style="html=1;verticalLabelPosition=bottom;align=center;labelBackgroundColor=#ffffff;verticalAlign=top;strokeWidth=2;strokeColor=#0080F0;shadow=0;dashed=0;shape=mxgraph.ios7.icons.smartphone;" parent="1" vertex="1">
          <mxGeometry x="390" y="77.5" width="18" height="30" as="geometry" />
        </mxCell>
        <mxCell id="mawcjA4YxSA_-x8KglYQ-5" value="" style="outlineConnect=0;dashed=0;verticalLabelPosition=bottom;verticalAlign=top;align=center;html=1;shape=mxgraph.aws3.management_console;fillColor=#F58534;gradientColor=none;" parent="1" vertex="1">
          <mxGeometry x="210" y="70" width="40" height="45" as="geometry" />
        </mxCell>
        <mxCell id="mawcjA4YxSA_-x8KglYQ-7" value="WAF 安全防护" style="rounded=0;whiteSpace=wrap;html=1;" parent="1" vertex="1">
          <mxGeometry x="110" y="180" width="650" height="50" as="geometry" />
        </mxCell>
        <mxCell id="mawcjA4YxSA_-x8KglYQ-8" value="" style="outlineConnect=0;dashed=0;verticalLabelPosition=bottom;verticalAlign=top;align=center;html=1;shape=mxgraph.aws3.waf;fillColor=#759C3E;gradientColor=none;" parent="1" vertex="1">
          <mxGeometry x="70" y="185" width="20" height="30" as="geometry" />
        </mxCell>
        <mxCell id="mawcjA4YxSA_-x8KglYQ-9" value="发布服务器(网关服务器)" style="rounded=0;whiteSpace=wrap;html=1;" parent="1" vertex="1">
          <mxGeometry x="110" y="264" width="650" height="26" as="geometry" />
        </mxCell>
        <mxCell id="Wt1t-0Yeev_Bzz4dzMjs-2" value="" style="dashed=0;outlineConnect=0;html=1;align=center;labelPosition=center;verticalLabelPosition=bottom;verticalAlign=top;shape=mxgraph.webicons.apache;gradientColor=#DFDEDE" vertex="1" parent="1">
          <mxGeometry x="70" y="264" width="25.5" height="30" as="geometry" />
        </mxCell>
        <mxCell id="Wt1t-0Yeev_Bzz4dzMjs-3" value="公共信息管理" style="rounded=1;whiteSpace=wrap;html=1;" vertex="1" parent="1">
          <mxGeometry x="120" y="382" width="80" height="33" as="geometry" />
        </mxCell>
        <mxCell id="Wt1t-0Yeev_Bzz4dzMjs-4" value="智能数据监控系统" style="rounded=1;whiteSpace=wrap;html=1;" vertex="1" parent="1">
          <mxGeometry x="210" y="382" width="125" height="33" as="geometry" />
        </mxCell>
        <mxCell id="Wt1t-0Yeev_Bzz4dzMjs-10" value="系统服务" style="text;html=1;strokeColor=none;fillColor=none;align=center;verticalAlign=middle;whiteSpace=wrap;rounded=0;" vertex="1" parent="1">
          <mxGeometry x="110" y="342" width="60" height="30" as="geometry" />
        </mxCell>
        <mxCell id="Wt1t-0Yeev_Bzz4dzMjs-18" value="REST" style="text;html=1;strokeColor=none;fillColor=none;align=center;verticalAlign=middle;whiteSpace=wrap;rounded=0;" vertex="1" parent="1">
          <mxGeometry x="260" y="312" width="60" height="30" as="geometry" />
        </mxCell>
        <mxCell id="Wt1t-0Yeev_Bzz4dzMjs-26" value="自动化故障检测系统" style="rounded=1;whiteSpace=wrap;html=1;" vertex="1" parent="1">
          <mxGeometry x="351" y="382" width="125" height="33" as="geometry" />
        </mxCell>
        <mxCell id="Wt1t-0Yeev_Bzz4dzMjs-27" value="静态文件" style="rounded=0;whiteSpace=wrap;html=1;" vertex="1" parent="1">
          <mxGeometry x="500" y="367" width="150" height="63" as="geometry" />
        </mxCell>
        <mxCell id="Wt1t-0Yeev_Bzz4dzMjs-28" value="系统监控" style="rounded=0;whiteSpace=wrap;html=1;" vertex="1" parent="1">
          <mxGeometry x="660" y="367" width="100" height="63" as="geometry" />
        </mxCell>
        <mxCell id="Wt1t-0Yeev_Bzz4dzMjs-29" value="PROXY" style="text;html=1;strokeColor=none;fillColor=none;align=center;verticalAlign=middle;whiteSpace=wrap;rounded=0;" vertex="1" parent="1">
          <mxGeometry x="600" y="312" width="60" height="30" as="geometry" />
        </mxCell>
        <mxCell id="Wt1t-0Yeev_Bzz4dzMjs-30" value="" style="sketch=0;aspect=fixed;html=1;points=[];align=center;image;fontSize=12;image=img/lib/mscae/Cache_Redis_Product.svg;" vertex="1" parent="1">
          <mxGeometry x="110" y="491" width="23.81" height="20" as="geometry" />
        </mxCell>
        <mxCell id="Wt1t-0Yeev_Bzz4dzMjs-33" value="" style="sketch=0;aspect=fixed;html=1;points=[];align=center;image;fontSize=12;image=img/lib/mscae/Azure_Database_for_MySQL_servers.svg;" vertex="1" parent="1">
          <mxGeometry x="237.2" y="480" width="22.8" height="30" as="geometry" />
        </mxCell>
        <mxCell id="Wt1t-0Yeev_Bzz4dzMjs-34" value="" style="sketch=0;aspect=fixed;html=1;points=[];align=center;image;fontSize=12;image=img/lib/mscae/Azure_Database_for_MySQL_servers.svg;" vertex="1" parent="1">
          <mxGeometry x="214.39999999999998" y="520" width="22.8" height="30" as="geometry" />
        </mxCell>
        <mxCell id="Wt1t-0Yeev_Bzz4dzMjs-35" value="" style="sketch=0;aspect=fixed;html=1;points=[];align=center;image;fontSize=12;image=img/lib/mscae/Azure_Database_for_MySQL_servers.svg;" vertex="1" parent="1">
          <mxGeometry x="260" y="520" width="22.8" height="30" as="geometry" />
        </mxCell>
        <mxCell id="Wt1t-0Yeev_Bzz4dzMjs-40" value="" style="sketch=0;aspect=fixed;html=1;points=[];align=center;image;fontSize=12;image=img/lib/mscae/Cache_Redis_Product.svg;" vertex="1" parent="1">
          <mxGeometry x="96.19" y="521" width="23.81" height="20" as="geometry" />
        </mxCell>
        <mxCell id="Wt1t-0Yeev_Bzz4dzMjs-41" value="" style="sketch=0;aspect=fixed;html=1;points=[];align=center;image;fontSize=12;image=img/lib/mscae/Cache_Redis_Product.svg;" vertex="1" parent="1">
          <mxGeometry x="128.1" y="521" width="23.81" height="20" as="geometry" />
        </mxCell>
      </root>
    </mxGraphModel>
  </diagram>
</mxfile>
